solid OpenSCAD_Model
  facet normal 0 0 1
    outer loop
      vertex 0.625 0.625 2.01
      vertex 22.125 1.125 2.01
      vertex 0.625 1.125 2.01
    endloop
  endfacet
  facet normal 0 1 0
    outer loop
      vertex 0 1.75 0
      vertex 0 1.75 0.01
      vertex 22.75 1.75 0
    endloop
  endfacet
  facet normal 1 0 0
    outer loop
      vertex 22.75 0 0
      vertex 22.75 1.75 0
      vertex 22.75 0 0.01
    endloop
  endfacet
  facet normal 0 -0.95448 0.298275
    outer loop
      vertex 22.75 0 0.01
      vertex 22.125 0.625 2.01
      vertex 0 0 0.01
    endloop
  endfacet
  facet normal 0 1 -0
    outer loop
      vertex 22.75 1.75 0
      vertex 0 1.75 0.01
      vertex 22.75 1.75 0.01
    endloop
  endfacet
  facet normal 0 0.95448 0.298275
    outer loop
      vertex 22.125 1.125 2.01
      vertex 0 1.75 0.01
      vertex 0.625 1.125 2.01
    endloop
  endfacet
  facet normal 0 0 -1
    outer loop
      vertex 0 0 0
      vertex 22.75 1.75 0
      vertex 22.75 0 0
    endloop
  endfacet
  facet normal 0 0 -1
    outer loop
      vertex 0 1.75 0
      vertex 22.75 1.75 0
      vertex 0 0 0
    endloop
  endfacet
  facet normal 0.95448 0 0.298275
    outer loop
      vertex 22.75 1.75 0.01
      vertex 22.125 1.125 2.01
      vertex 22.75 0 0.01
    endloop
  endfacet
  facet normal 0 -0.95448 0.298275
    outer loop
      vertex 0 0 0.01
      vertex 22.125 0.625 2.01
      vertex 0.625 0.625 2.01
    endloop
  endfacet
  facet normal -0.95448 0 0.298275
    outer loop
      vertex 0.625 0.625 2.01
      vertex 0 1.75 0.01
      vertex 0 0 0.01
    endloop
  endfacet
  facet normal -0.95448 0 0.298275
    outer loop
      vertex 0.625 1.125 2.01
      vertex 0 1.75 0.01
      vertex 0.625 0.625 2.01
    endloop
  endfacet
  facet normal 0 -1 -0
    outer loop
      vertex 22.75 0 0.01
      vertex 0 0 0
      vertex 22.75 0 0
    endloop
  endfacet
  facet normal 0 -1 0
    outer loop
      vertex 0 0 0.01
      vertex 0 0 0
      vertex 22.75 0 0.01
    endloop
  endfacet
  facet normal 0 0.95448 0.298275
    outer loop
      vertex 22.75 1.75 0.01
      vertex 0 1.75 0.01
      vertex 22.125 1.125 2.01
    endloop
  endfacet
  facet normal 1 -0 0
    outer loop
      vertex 22.75 0 0.01
      vertex 22.75 1.75 0
      vertex 22.75 1.75 0.01
    endloop
  endfacet
  facet normal 0 -0 1
    outer loop
      vertex 22.125 0.625 2.01
      vertex 22.125 1.125 2.01
      vertex 0.625 0.625 2.01
    endloop
  endfacet
  facet normal 0.95448 0 0.298275
    outer loop
      vertex 22.75 0 0.01
      vertex 22.125 1.125 2.01
      vertex 22.125 0.625 2.01
    endloop
  endfacet
  facet normal -1 0 0
    outer loop
      vertex 0 0 0
      vertex 0 1.75 0.01
      vertex 0 1.75 0
    endloop
  endfacet
  facet normal -1 0 0
    outer loop
      vertex 0 0 0.01
      vertex 0 1.75 0.01
      vertex 0 0 0
    endloop
  endfacet
endsolid OpenSCAD_Model
